<svg version="1.1" xmlns="http://www.w3.org/2000/svg" xmlns:xlink="http://www.w3.org/1999/xlink" width="47.55705" height="49.76299" viewBox="0,0,47.55705,49.76299"><g transform="translate(-407.48602,-64.35755)"><g stroke-miterlimit="10"><text transform="translate(407.90365,100.41251) scale(0.83525,0.83525)" font-size="40" xml:space="preserve" fill="#9966ff" stroke="none" stroke-width="1" font-family="Sans Serif" font-weight="normal" text-anchor="start"><tspan x="0" dy="0">🏅</tspan></text><path d="M442.40377,93.08096c0,6.71736 -5.26792,12.16285 -11.76623,12.16285c-6.49831,0 -11.76623,-5.44549 -11.76623,-12.16285c0,-6.71736 5.26792,-12.16285 11.76623,-12.16285c6.49831,0 11.76623,5.44549 11.76623,12.16285z" fill="none" stroke="#9e9e9e" stroke-width="3.5"/><path d="M430.90235,94.53531z" fill="none" stroke="#9e9e9e" stroke-width="0.5"/><text transform="translate(408.29491,107.0041) scale(0.12416,0.12416)" font-size="40" xml:space="preserve" fill="#ffffff" stroke="none" stroke-width="1" font-family="Pixel" font-weight="normal" text-anchor="start"><tspan x="0" dy="0"> </tspan><tspan x="0" dy="46.15px">Pré-Registrado</tspan></text><path d="M427.64645,81.5443c-1.49706,0.95267 -4.76615,1.99905 -6.42859,1.41163c-2.05201,-0.72507 -7.17907,-8.33393 -5.81395,-10.47911c2.36608,-3.71812 12.65446,-2.25114 14.43223,2.61876c0.16193,0.44359 1.07319,1.52303 1.66562,2.53877c0.17989,0.21259 0.30997,0.46868 0.37223,0.75025c0.02702,0.1222 0.04127,0.2492 0.04127,0.37953c0,0.9665 -0.7835,1.75 -1.75,1.75c-0.59527,0 -1.12111,-0.29721 -1.43725,-0.75133c-0.61979,-0.3138 -0.49547,1.40852 -1.08156,1.78149z" fill="#9e9e9e" stroke="none" stroke-width="0.5"/><path d="M432.02293,80.37283c-0.31613,0.45412 -0.84199,0.75132 -1.43725,0.75132c-0.9665,0 -1.75,-0.7835 -1.75,-1.75c0,-0.13033 0.01425,-0.25733 0.04127,-0.37953c0.06226,-0.28157 0.19234,-0.53766 0.37223,-0.75025c0.59243,-1.01574 1.50368,-2.09519 1.66562,-2.53877c1.77777,-4.86991 12.06615,-6.33688 14.43223,-2.61876c1.36512,2.14518 -3.76194,9.75404 -5.81395,10.47911c-1.66244,0.58742 -4.93154,-0.45897 -6.42859,-1.41164c-0.58609,-0.37297 -0.46177,-2.09528 -1.08156,-1.78149z" fill="#9e9e9e" stroke="none" stroke-width="0.5"/></g></g></svg>