<svg version="1.1" xmlns="http://www.w3.org/2000/svg" xmlns:xlink="http://www.w3.org/1999/xlink" width="90.76897" height="111.2534" viewBox="0,0,90.76897,111.2534"><g transform="translate(-189.97018,-143.5)"><g stroke-miterlimit="10"><path d="M191.47018,232.76897v-87.76897h87.76897v87.76897z" fill="#80580a" stroke="#000000" stroke-width="3"/><text transform="translate(208.77038,250.49145) scale(0.4059,0.4059)" font-size="40" xml:space="preserve" fill="#ffffff" stroke="none" stroke-width="1" font-family="Pixel" font-weight="normal" text-anchor="start"><tspan x="0" dy="0">O Café</tspan></text><path d="M240.30149,180.04374c-0.32862,0.00187 -0.33049,-0.32674 -0.33049,-0.32674l-0.00039,-0.06868c-0.00426,-0.76688 -0.15948,-1.12798 -0.31626,-1.83448c-0.28161,-1.26899 0.32016,-2.59947 -0.29842,-3.79959c0,0 -0.14696,-0.29392 0.14696,-0.44089c0.29392,-0.14696 0.44089,0.14696 0.44089,0.14696c0.64133,1.31523 0.03468,2.60151 0.35134,3.94732c0.16947,0.72025 0.32814,1.1936 0.33271,1.97693l0.00039,0.06868c0,0 0.00187,0.32862 -0.32674,0.33049z" fill="#000000" stroke="none" stroke-width="0.5"/><g stroke="none"><path d="M219.37915,198.80418v-26.01087h33.52802v26.01087z" fill="#26b700" stroke-width="0"/><path d="M225.30251,221.06043v-68.27854h21.04419v68.27854z" fill="#26b700" stroke-width="0"/><path d="M224.86005,198.50561v-25.87195h21.64736v25.87195z" fill="#0032fc" stroke-width="0"/><path d="M219.44821,184.91187v-12.27821h33.76988v12.27821z" fill="#0032fc" stroke-width="0"/><text transform="translate(226.87246,189.15293) scale(0.34814,0.35261)" font-size="40" xml:space="preserve" fill="#00eafc" stroke-width="1" font-family="Sans Serif" font-weight="normal" text-anchor="start"><tspan x="0" dy="0">☕</tspan></text></g></g></g></svg>