<svg version="1.1" xmlns="http://www.w3.org/2000/svg" xmlns:xlink="http://www.w3.org/1999/xlink" width="129.1481" height="107.73219" viewBox="0,0,129.1481,107.73219"><g transform="translate(-172.51053,-143.5)"><g stroke-miterlimit="10"><path d="M191.47018,232.76897v-87.76897h87.76897v87.76897z" fill="#3e03ff" stroke="#000000" stroke-width="3"/><text transform="translate(173.07577,247.54837) scale(0.35084,0.35084)" font-size="40" xml:space="preserve" fill="#ffffff" stroke="none" stroke-width="1" font-family="Pixel" font-weight="normal" text-anchor="start"><tspan x="0" dy="0">Óculos Elegantes </tspan></text><path d="M200.38249,191.31771c-2,0 -2,-2 -2,-2l0.17237,-1.34088c0.73648,-1.14965 0.93956,-2.94746 2.20945,-3.44895c1.17702,-0.46481 4.61227,1.27629 6.94346,2.38608l-0.0747,-1.03217c0,0 0,-1.72821 1.60649,-1.97163c0.66008,-0.65713 1.67158,-0.54474 1.67158,-0.54474c4.8296,0.53671 9.60566,0.70487 14.44003,1.04884c1.64511,0.11705 4.45127,0.41298 5.50995,1.95236c0.27142,0.39466 0.33018,2.3855 0.33749,3.92309c2.94306,-0.26973 5.83373,-0.32897 8.82922,-0.32897h1.85011c0,0 2,0 2,2c0,2 -2,2 -2,2h-1.85011c-3.05489,0 -5.98458,0.05948 -8.99003,0.36268c-0.26326,2.06946 -0.9261,4.30672 -2.44502,5.54066c-2.94085,2.38909 -9.71518,1.24804 -13.25897,1.19673c-1.18255,-0.49558 -2.55518,-0.67494 -3.54765,-1.48675c-2.0943,-1.71308 -2.58181,-4.98315 -3.09883,-8.00397c-0.28516,-0.02588 -0.47962,-0.0907 -0.47962,-0.0907c-1.6572,-0.55434 -4.07779,-1.26954 -5.51475,-2.20668c-0.3176,-0.20713 -0.26443,-1.19317 -0.57787,-0.9798c-0.3615,0.24608 0.06335,0.87233 0.09503,1.30849l0.17238,-0.28368c0,0 0,2 -2,2z" fill="#000000" stroke="none" stroke-width="0.5"/><path d="M236.0111,185.16716c-1.6641,-1.1094 -0.5547,-2.7735 -0.5547,-2.7735l0.65626,-0.96388c0.74576,-0.73557 1.23344,-1.90753 2.23729,-2.2067c1.40972,-0.42013 4.08882,0.7883 5.42669,1.40841c3.06981,1.42287 6.29436,2.48949 9.36181,3.87688c2.14095,-0.15528 4.2805,-0.33288 6.43287,-0.61488c0,0 0.84694,-0.11095 1.39875,0.54712c1.34463,0.24572 1.34256,1.97393 1.34256,1.97393l-0.10871,1.75927c-1.12795,3.5051 -0.79872,9.40793 -3.38454,11.92706c-0.83184,0.81039 -1.9812,0.98778 -2.97179,1.48167c-2.96685,0.04624 -8.63951,1.1776 -11.09866,-1.21569c-1.27013,-1.23611 -1.82237,-3.47431 -2.04029,-5.54414c-2.51574,-0.30749 -4.96833,-0.37117 -7.52581,-0.37554l-1.54887,-0.00265c0,0 -1.67436,-0.00286 -1.67196,-2.00286c0.0024,-2 1.67675,-1.99714 1.67675,-1.99714l1.54888,0.00265c2.50776,0.00428 4.92767,0.06765 7.39121,0.34159c0.00797,-1.53758 0.05954,-3.52832 0.28724,-3.9226c0.41023,-0.71033 1.13225,-1.15484 1.92625,-1.43885c-0.90928,-0.36743 -1.81189,-0.75024 -2.69868,-1.16712c-1.44627,-0.67989 -2.26273,-1.80456 -2.90811,-0.26968l-0.40095,0.62194c0,0 -1.1094,1.6641 -2.7735,0.5547z" fill="#000000" stroke="none" stroke-width="0.5"/><path d="M224.69829,195.28224c-2,0 -2,-2 -2,-2l0.05971,-1.36504c-0.1762,-0.70481 -0.3524,-1.40961 -0.5286,-2.11442c0,0 -0.48507,-1.94029 1.45521,-2.42536c1.94029,-0.48507 2.42536,1.45521 2.42536,1.45521c0.1762,0.70481 0.3524,1.40961 0.5286,2.11442l0.05971,2.33519c0,0 0,2 -2,2z" fill="#ffffff" stroke="none" stroke-width="0.5"/><path d="M256.67886,196.07515c-2,0 -2,-2 -2,-2l0.01544,-0.01623c-0.1762,-1.40961 -0.3524,-2.81922 -0.5286,-4.22884c0,0 -0.24807,-1.98456 1.73649,-2.23263c1.98456,-0.24807 2.23263,1.73649 2.23263,1.73649c0.1762,1.40961 0.3524,2.81922 0.5286,4.22884l0.01544,0.51237c0,0 0,2 -2,2z" fill="#ffffff" stroke="none" stroke-width="0.5"/></g></g></svg>