<svg version="1.1" xmlns="http://www.w3.org/2000/svg" xmlns:xlink="http://www.w3.org/1999/xlink" width="90.76897" height="120.16201" viewBox="0,0,90.76897,120.16201"><g transform="translate(-269.97018,-143.5)"><g stroke-miterlimit="10"><path d="M271.47018,232.76897v-87.76897h87.76897v87.76897z" fill="#5a5a5a" stroke="#000000" stroke-width="3"/><text transform="translate(279.81612,257.62184) scale(0.57525,0.57525)" font-size="40" xml:space="preserve" fill="#ffffff" stroke="none" stroke-width="1" font-family="Pixel" font-weight="normal" text-anchor="start"><tspan x="0" dy="0">Luvas</tspan></text><path d="M287.12016,231.26776v-46.54085h60.76166v46.54085z" fill="#26b700" stroke="none" stroke-width="0"/><path d="M297.63281,216.84769v-67.60756h41.23973v67.60756z" fill="#26b700" stroke="none" stroke-width="0"/><g stroke="none" stroke-width="0"><path d="M287.17632,231.16628v-7.75337h16.43962v7.75337z" fill="#9bb894"/><path d="M287.14683,231.2236v-4.74454h16.48869v4.74454z" fill="#3c3c3c"/><path d="M289.61559,228.1508v-4.74454h3.08338v4.74454z" fill="#3c3c3c"/><path d="M297.38843,228.13906v-4.74454h3.08338v4.74454z" fill="#3c3c3c"/></g><g stroke="none" stroke-width="0"><path d="M331.38747,231.32551v-7.75337h16.43962v7.75337z" fill="#9bb894"/><path d="M331.35798,231.38283v-4.74454h16.48869v4.74454z" fill="#3c3c3c"/><path d="M333.82674,228.31003v-4.74454h3.08338v4.74454z" fill="#3c3c3c"/><path d="M341.59958,228.29828v-4.74454h3.08338v4.74454z" fill="#3c3c3c"/></g></g></g></svg>