<svg version="1.1" xmlns="http://www.w3.org/2000/svg" xmlns:xlink="http://www.w3.org/1999/xlink" width="683.68168" height="387.88589" viewBox="0,0,683.68168,387.88589"><g transform="translate(20.29816,11.45604)"><g stroke-miterlimit="10"><path d="M-19.29816,375.42986v-385.88589h681.68168v385.88589z" fill="#666666" stroke="#000000" stroke-width="2"/><path d="M21.12988,306.18983v-300.89544h171.64482v300.89544z" fill="#494949" stroke="#000000" stroke-width="0.5"/><path d="M206.32214,111.49015v-105.70024h417.89107v105.70024z" fill="#909090" stroke="#000000" stroke-width="0.5"/><path d="M386.22171,15.91556l5,-0.00065l0.27589,83.62599l-5,0.00065z" fill="#ffffff" stroke="none" stroke-width="0"/><text transform="translate(222.90281,46.18417) scale(0.50078,0.50078)" font-size="40" xml:space="preserve" fill="#ffffff" stroke="none" stroke-width="1" font-family="Pixel" font-weight="normal" text-anchor="start"><tspan x="0" dy="0">Cor:</tspan></text><text transform="translate(401.69449,53.5239) scale(0.45466,0.45466)" font-size="40" xml:space="preserve" fill="#ffffff" stroke="none" stroke-width="1" font-family="Pixel" font-weight="normal" text-anchor="start"><tspan x="0" dy="0">Vestindo </tspan><tspan x="0" dy="48px">Agora:</tspan></text><path d="M205.32214,236.49016v-105.70024h189.89107v105.70024z" fill="#909090" stroke="#000000" stroke-width="0.5"/><text transform="translate(270.87796,148.12427) scale(0.30423,0.30423)" font-size="40" xml:space="preserve" fill="#ffffff" stroke="none" stroke-width="1" font-family="Pixel" font-weight="normal" text-anchor="start"><tspan x="0" dy="0">PBucks:</tspan></text><text transform="translate(273.87796,199.72427) scale(0.30423,0.30423)" font-size="40" xml:space="preserve" fill="#ffffff" stroke="none" stroke-width="1" font-family="Pixel" font-weight="normal" text-anchor="start"><tspan x="0" dy="0">Points:</tspan></text><path d="M410.32219,304.49016v-174.70024h212.89107v174.70024z" fill="#909090" stroke="#000000" stroke-width="0.5"/><text transform="translate(436.69449,157.39951) scale(0.40954,0.40954)" font-size="40" xml:space="preserve" fill="#ffffff" stroke="none" stroke-width="1" font-family="Pixel" font-weight="normal" text-anchor="start"><tspan x="0" dy="0">Último mapa jogado:</tspan></text></g></g></svg>