<svg version="1.1" xmlns="http://www.w3.org/2000/svg" xmlns:xlink="http://www.w3.org/1999/xlink" width="90.76897" height="111.2534" viewBox="0,0,90.76897,111.2534"><g transform="translate(-189.97018,-143.5)"><g stroke-miterlimit="10"><path d="M191.47018,232.76897v-87.76897h87.76897v87.76897z" fill="#ff1515" stroke="#000000" stroke-width="3"/><text transform="translate(207.95734,250.49145) scale(0.4059,0.4059)" font-size="40" xml:space="preserve" fill="#ffffff" stroke="none" stroke-width="1" font-family="Pixel" font-weight="normal" text-anchor="start"><tspan x="0" dy="0">Pijama</tspan></text><g stroke="none" stroke-width="0"><path d="M220.23552,194.83191v-22.76681h29.72333v22.76681z" fill="#00b2d6"/><path d="M225.48672,214.31237v-41.83402h18.65614v41.83402z" fill="#00b2d6"/><path d="M225.69829,172.12076v-17.07511h19.22531v17.07511z" fill="#00b2d6"/><path d="M226.76362,171.47858v-15.65218h16.94863v15.65218z" fill="#26b700"/><path d="M241.01103,183.86176c0,5.1081 -2.35715,9.24901 -5.26482,9.24901c-2.90768,0 -5.26482,-4.14093 -5.26482,-9.24901c0,-5.1081 2.35715,-9.24901 5.26482,-9.24901c2.90768,0 5.26482,4.14093 5.26482,9.24901z" fill="#ffffff"/></g></g></g></svg>