<svg version="1.1" xmlns="http://www.w3.org/2000/svg" xmlns:xlink="http://www.w3.org/1999/xlink" width="90.76897" height="110.43726" viewBox="0,0,90.76897,110.43726"><g transform="translate(-269.97018,-143.5)"><g stroke-miterlimit="10"><path d="M271.47018,232.76897v-87.76897h87.76897v87.76897z" fill="#ff8888" stroke="#000000" stroke-width="3"/><text transform="translate(277.36464,249.67531) scale(0.4059,0.4059)" font-size="40" xml:space="preserve" fill="#ffffff" stroke="none" stroke-width="1" font-family="Pixel" font-weight="normal" text-anchor="start"><tspan x="0" dy="0">Camiseta</tspan></text><g stroke="none"><path d="M324.79414,175.34966c-0.7362,0.00419 -0.74038,-0.73199 -0.74038,-0.73199l-0.00088,-0.15387c-0.00954,-1.71801 -0.35727,-2.52699 -0.70851,-4.10974c-0.63089,-2.84289 0.71724,-5.82355 -0.66855,-8.51214c0,0 -0.32924,-0.65847 0.32924,-0.98773c0.65847,-0.32924 0.98773,0.32924 0.98773,0.32924c1.43675,2.94647 0.0777,5.8281 0.7871,8.84309c0.37966,1.61357 0.73513,2.67399 0.74537,4.42888l0.00088,0.15387c0,0 0.00419,0.7362 -0.73199,0.74039z" fill="#000000" stroke-width="0.5"/><path d="M290.95688,217.45465v-58.43127h47.27173v58.43127z" fill="#ffffff" stroke-width="0"/><path d="M277.76752,186.63571v-27.61234h75.45543v27.61234z" fill="#ffffff" stroke-width="0"/><path d="M290.06919,162.92109v-3.95985h49.92149v3.95985z" fill="#ff0000" stroke-width="0"/></g></g></g></svg>