<svg version="1.1" xmlns="http://www.w3.org/2000/svg" xmlns:xlink="http://www.w3.org/1999/xlink" width="102.8351" height="108.86889" viewBox="0,0,102.8351,108.86889"><g transform="translate(-185.30655,-143.5)"><g stroke-miterlimit="10"><path d="M191.47022,232.76897v-87.76897h87.76897v87.76897z" fill="#77008a" stroke="#000000" stroke-width="3"/><text transform="translate(185.87179,248.68507) scale(0.35084,0.35084)" font-size="40" xml:space="preserve" fill="#ffffff" stroke="none" stroke-width="1" font-family="Pixel" font-weight="normal" text-anchor="start"><tspan x="0" dy="0">O Encapuzado</tspan></text><path d="M207.63105,230.30351v-69.1983h55.27174v69.1983z" fill="#26b700" stroke="none" stroke-width="0"/><path d="M196.64116,230.73497v-17.80223h77.54337v17.80223z" fill="#26b700" stroke="none" stroke-width="0"/><path d="M207.88419,212.10043v-50.825h55.39354v50.82501z" fill="none" stroke="#000000" stroke-width="4.5"/><path d="M221.58981,223.05857c-1.25,0 -1.25,-1.25 -1.25,-1.25v-2.28427c0,-2.74864 0.53227,-4.5297 1.17946,-7.15598c0,0 0.30317,-1.21268 1.51585,-0.90951c1.21268,0.30317 0.90951,1.51585 0.90951,1.51585c-0.64546,2.54934 -1.10481,3.93445 -1.10481,6.54964v2.28427c0,0 0,1.25 -1.25,1.25z" fill="#000000" stroke="none" stroke-width="0.5"/><path d="M247.68312,222.42336c-1.18585,0.39528 -1.58114,-0.79057 -1.58114,-0.79057l-0.54006,-1.63013c-0.90223,-1.79258 -1.78299,-3.96655 -3.98476,-3.79689c0,0 -1.25,0 -1.25,-1.25c0,-1.25 1.25,-1.25 1.25,-1.25c3.47947,0.15107 4.84233,2.41913 6.29446,5.34019l0.60207,1.79627c0,0 0.39528,1.18585 -0.79057,1.58114z" fill="#000000" stroke="none" stroke-width="0.5"/></g></g></svg>