<svg version="1.1" xmlns="http://www.w3.org/2000/svg" xmlns:xlink="http://www.w3.org/1999/xlink" width="80.0454" height="75.48614" viewBox="0,0,80.0454,75.48614"><g transform="translate(-258.07566,-107.80735)"><g stroke="none" stroke-miterlimit="10"><path d="M272.00381,162.81486v-54.81486h53.97799v54.81486z" fill="#00f7ff" stroke-width="0"/><path d="M306.52462,139.1036c0,-1.38656 1.12404,-2.5106 2.5106,-2.5106c1.38656,0 2.5106,1.12404 2.5106,2.5106c0,1.38656 -1.12404,2.5106 -2.5106,2.5106c-1.38656,0 -2.5106,-1.12404 -2.5106,-2.5106z" fill="#00f8ff" stroke-width="0.5"/><path d="M304.01054,135.19126l0.92403,-0.43937c0.0341,0.0093 -2.49377,-2.06014 -4.6689,-3.51326c0.86628,1.0174 2.05773,2.171 2.42862,3.28367c0.13726,0.4118 0.21974,0.80476 0.25468,1.1812c0.20546,-0.10208 0.40377,-0.12639 0.58324,-0.1081c0.2089,-0.26942 0.47833,-0.40414 0.47833,-0.40414zM298.9011,127.61671c2.28222,0.98061 5.70893,3.66677 7.55542,5.47333c0.57941,0.56688 1.6058,1.01864 1.60235,1.82923c-0.00347,0.81699 -1.07863,1.22741 -1.61794,1.84111l-1.03795,0.53694c1.85434,2.52674 3.76526,5.31065 4.43215,8.34125l0.43102,-0.08621l0.27387,1.36937c0.01929,0.08746 0.02946,0.17834 0.02946,0.2716c0,0.69329 -0.56202,1.2553 -1.2553,1.2553c-0.21084,0 -0.40953,-0.05198 -0.58397,-0.14382l-2.14883,-1.07442c-0.46147,-0.15162 -1.28844,-0.37969 -1.70209,-0.67161c0.08209,0.90892 0.09292,2.73176 0.07198,4.26098h0.59701v1.39477c0,0.69329 -0.56202,1.2553 -1.2553,1.2553c-0.28717,0 -0.55181,-0.09642 -0.76332,-0.25867l-1.10568,-0.82926l0.0055,-0.00732l-0.03097,-0.01229c-0.94379,-0.79198 -1.74929,-1.7355 -2.61958,-2.6076c-0.63354,-0.63486 -2.3469,-2.70013 -1.85116,-1.95269c0.92129,1.38904 0.67161,3.08002 0.08036,4.60613l0.26293,0.05259l-0.2744,1.37198c-0.10538,0.58671 -0.61844,1.03192 -1.23549,1.03192c-0.61705,0 -1.13011,-0.44521 -1.23549,-1.03192l-0.2669,-1.33455c-1.06622,-3.72457 -2.11841,-7.45653 -2.91467,-11.24605c-0.48459,1.19905 -0.71562,1.92949 -1.08584,2.68003l0.25242,0.10098l-0.54705,1.36763c-0.17801,0.47676 -0.63755,0.81625 -1.17638,0.81625c-0.56469,0 -1.04229,-0.37286 -1.20004,-0.88581l-0.54876,-1.64627l0.02241,-0.00747l-0.04478,-0.06729c-0.60753,-3.01231 -1.43683,-5.58054 -1.43683,-8.69087c0,0 0,-0.61213 0.42745,-0.98148c-0.99605,-1.64771 -2.62698,-4.45469 -2.10001,-6.52522c-0.0206,-3.2664 -1.39796,-6.51335 -1.38995,-9.91324l-0.2555,-1.27747c-0.01929,-0.08746 -0.02946,-0.17834 -0.02946,-0.27161c0,-0.69329 0.56202,-1.2553 1.2553,-1.2553c0.34664,0 0.66046,0.1405 0.88763,0.36767l1.11582,1.11582l-0.14114,0.14115c4.32295,2.91947 8.14312,7.18243 11.33777,11.41974c0.52965,-0.39632 1.21392,-0.12262 1.21392,-0.12262zM289.91132,140.56236c0.03663,-0.08357 0.07196,-0.16734 0.1052,-0.25124l0.24341,-0.7368c0.04783,-0.1571 0.12564,-0.30114 0.22676,-0.42545c0.02567,-0.03417 0.05385,-0.0687 0.08467,-0.10273c-0.44054,-0.47247 -0.86546,-0.99749 -1.28328,-1.56761c0.15502,1.04321 0.3838,2.05012 0.62324,3.08383zM296.0845,146.09538c0.02198,-0.02461 0.04465,-0.04753 0.06799,-0.06865c2.00429,-1.81415 4.73052,1.15437 6.56433,3.12162c-0.35469,-1.95013 -0.17082,-4.72631 0.59344,-5.22615c0.40602,-0.26555 2.23717,0.30851 3.40444,0.70404c-1.51198,-2.12783 -3.25156,-5.76345 -3.98388,-6.72216l-0.05284,-0.04702c-0.01565,-0.01238 -0.031,-0.02511 -0.04603,-0.03821c-0.47871,1.1867 -1.41085,2.20996 -2.42129,3.18944c-2.05546,0.71871 -3.75257,0.89681 -5.2128,0.64005c0.32977,1.48982 0.69732,2.971 1.08663,4.44705zM288.84288,127.6881c-0.65365,0.10048 -1.22062,0.19518 -1.46965,0.2891c-0.03094,0.12878 -0.08418,0.28168 -0.17581,0.42654c0.11937,1.18088 2.06711,4.41324 2.27147,4.75384c2.52769,4.21282 4.23312,7.3171 9.42188,5.71506c2.97068,-3.12514 -1.25042,-8.45678 -5.12147,-12.4663l-1.10455,0.66273l-0.14157,-0.23595c-0.43663,0.36474 -0.90993,0.67228 -1.43284,0.88297l-0.90612,0.30432c0,0 -0.83683,0.27894 -1.34134,-0.33231zM289.73649,122.417c-0.72228,-0.72532 -2.34199,-1.59053 -3.508,-2.57609c0.28622,1.96396 0.78736,3.87689 1.03756,5.81699c1.34635,-0.33964 3.05581,-0.70322 3.4918,-0.84683l1.03321,-0.38745c-0.80288,-0.78465 -1.51778,-1.46757 -2.05456,-2.00662z" fill="#000000" stroke-width="0.5"/><path d="M294.918,141.62332c1.46023,0.25677 3.21609,0.0227 5.27155,-0.69601c1.01043,-0.97948 1.98872,-2.00162 2.46744,-3.18833c0.01503,0.0131 0.03112,0.02608 0.04677,0.03845l0.0537,0.04732c0.73232,0.95871 2.52739,4.68967 4.03937,6.8175c-1.16726,-0.39553 -2.99817,-0.97088 -3.4042,-0.70534c-0.76426,0.49984 -1.00439,3.3408 -0.6497,5.29093c-1.83381,-1.96725 -4.65978,-4.97547 -6.66407,-3.16132c-0.02334,0.02112 -0.04579,0.04441 -0.06778,0.06902c-0.38931,-1.47605 -0.76332,-3.02242 -1.09308,-4.51224z" fill="#ff5e00" stroke-width="0.5"/><path d="M289.25592,137.40126c0.41782,0.57012 0.95851,1.17577 1.39905,1.64824c-0.03081,0.03404 -0.06107,0.08401 -0.08673,0.11818c-0.10112,0.12431 -0.21763,0.32142 -0.26545,0.47852l-0.28065,0.74843c-0.03324,0.0839 -0.07519,0.16784 -0.11182,0.25141c-0.23944,-1.03372 -0.49937,-2.20157 -0.65439,-3.24478z" fill="#000eff" stroke-width="0.5"/><path d="M303.56584,135.67203c-0.17947,-0.01829 -0.39849,0.01207 -0.60395,0.11415c-0.03494,-0.37644 -0.12288,-0.76873 -0.26014,-1.18053c-0.37089,-1.11267 -1.63029,-2.40746 -2.49656,-3.42486c2.17514,1.45311 4.83685,3.62064 4.80275,3.61135l-0.94434,0.46384c0,0 -0.28886,0.14663 -0.49776,0.41605z" fill="#000eff" stroke-width="0.5"/><path d="M290.13645,127.9517l0.91781,-0.31112c0.52292,-0.21069 1.0183,-0.52523 1.45493,-0.88997l0.14299,0.23573l1.12004,-0.66363c3.87104,4.00952 8.14481,9.48735 5.17413,12.61249c-5.18876,1.60204 -7.03321,-1.55858 -9.56091,-5.7714c-0.20436,-0.3406 -2.13717,-3.62722 -2.25654,-4.8081c0.09163,-0.14486 0.14773,-0.30161 0.17867,-0.43038c0.24903,-0.09392 0.82533,-0.19863 1.47898,-0.29911c0.50451,0.61126 1.3499,0.3255 1.3499,0.3255z" fill="#000eff" stroke-width="0.5"/><path d="M291.86276,124.46678l-1.05079,0.40812c-0.43599,0.14361 -2.2426,0.51513 -3.58895,0.85477c-0.2502,-1.94009 -0.76615,-3.98527 -1.05237,-5.94924c1.16601,0.98555 2.91967,1.87643 3.64195,2.60176c0.53678,0.53904 1.24728,1.29994 2.05016,2.08459z" fill="#ff0000" stroke-width="0.5"/><path d="M305.30946,140.38662c0.43057,0.71761 -0.28704,1.14817 -0.28704,1.14817l-0.36486,0.21781c-0.71571,0.47714 -1.69748,1.04834 -2.77578,1.54199c-0.65138,0.6589 -1.14736,0.73482 -1.62446,0.64619c-1.02227,0.34077 -2.05592,0.55016 -2.97613,0.50178c-0.23522,0.31702 -0.49136,0.58543 -1.01309,0.44337c-0.43503,-0.11845 -0.74038,-0.77098 -1.06569,-1.25407c-0.11177,-0.10724 -0.2164,-0.22631 -0.31315,-0.35792c0,0 -0.01045,-0.01567 -0.02585,-0.04387c-0.00579,-0.00474 -0.0116,-0.00937 -0.01743,-0.01389c0,0 -0.2913,-0.23304 -0.10377,-0.53408c0.02099,-0.1897 0.1192,-0.39536 0.37916,-0.56868c0.69632,-0.46421 1.16053,0.23211 1.16053,0.23211c0.65633,1.21631 0.9078,-0.1441 2.04334,-0.28286c2.59405,-0.31698 2.75589,0.06267 5.40392,-1.70269l0.43215,-0.2604c0,0 0.71761,-0.43057 1.14817,0.28704z" fill="#ff5e00" stroke-width="0.5"/><path d="M303.22621,148.66739c0.07197,0.21336 0.17348,0.73513 -0.41204,1.02789c-0.74852,0.37426 -1.12278,-0.37426 -1.12278,-0.37426c-1.13917,-2.28935 -1.79417,-3.25887 -4.37366,-3.29048l-0.77617,0.21168c-0.07564,0.02247 -0.15575,0.03453 -0.23869,0.03453c-0.46219,0 -0.83687,-0.37468 -0.83687,-0.83687c0,-0.34538 0.20922,-0.64189 0.50783,-0.7697l0.85945,-0.39066l0.05996,0.13192l0.06614,-0.01804l0.02391,0.08765c0.02892,-0.01703 0.05786,-0.03354 0.08686,-0.04952l-0.00165,-0.06022c0.03921,-0.00029 0.07814,-0.00041 0.11678,-0.00034c0.77344,-0.3873 1.60034,-0.40691 2.84308,-0.0577c0.013,0.00365 1.09866,0.3663 1.65572,0.78064c0.11317,-0.83972 0.49546,-2.13443 0.93664,-2.42748c0.67888,-0.45094 1.45054,-0.48468 2.19523,-0.3448c0.30412,-0.0235 0.57541,0.03219 0.74989,0.19473c0.18225,0.05889 0.36006,0.1237 0.53141,0.19034l0.05149,0.07901l0.02312,-0.03468l0.70652,0.47101c0.23073,0.14901 0.38346,0.40843 0.38346,0.70352c0,0.46219 -0.37468,0.83687 -0.83687,0.83687c-0.12993,0 -0.25294,-0.02961 -0.36265,-0.08245l-0.6983,-0.31741c-1.37823,0.16331 -1.81107,0.86274 -2.011,3.38473l-0.08138,0.73397c0,0 -0.00881,0.07926 -0.04545,0.18612z" fill="#fffe00" stroke-width="0.5"/><path d="M272.00381,162.81486v-54.81486h53.97799v54.81486z" fill="#3c1cff" stroke-width="0"/><path d="M306.52462,139.1036c0,-1.38656 1.12404,-2.5106 2.5106,-2.5106c1.38656,0 2.5106,1.12404 2.5106,2.5106c0,1.38656 -1.12404,2.5106 -2.5106,2.5106c-1.38656,0 -2.5106,-1.12404 -2.5106,-2.5106z" fill="#00f8ff" stroke-width="0.5"/><path d="M304.01054,135.19126l0.92403,-0.43937c0.0341,0.0093 -2.49377,-2.06014 -4.6689,-3.51326c0.86628,1.0174 2.05773,2.171 2.42862,3.28367c0.13726,0.4118 0.21974,0.80476 0.25468,1.1812c0.20546,-0.10208 0.40377,-0.12639 0.58324,-0.1081c0.2089,-0.26942 0.47833,-0.40414 0.47833,-0.40414zM298.9011,127.61671c2.28222,0.98061 5.70893,3.66677 7.55542,5.47333c0.57941,0.56688 1.6058,1.01864 1.60235,1.82923c-0.00347,0.81699 -1.07863,1.22741 -1.61794,1.84111l-1.03795,0.53694c1.85434,2.52674 3.76526,5.31065 4.43215,8.34125l0.43102,-0.08621l0.27387,1.36937c0.01929,0.08746 0.02946,0.17834 0.02946,0.2716c0,0.69329 -0.56202,1.2553 -1.2553,1.2553c-0.21084,0 -0.40953,-0.05198 -0.58397,-0.14382l-2.14883,-1.07442c-0.46147,-0.15162 -1.28844,-0.37969 -1.70209,-0.67161c0.08209,0.90892 0.09292,2.73176 0.07198,4.26098h0.59701v1.39477c0,0.69329 -0.56202,1.2553 -1.2553,1.2553c-0.28717,0 -0.55181,-0.09642 -0.76332,-0.25867l-1.10568,-0.82926l0.0055,-0.00732l-0.03097,-0.01229c-0.94379,-0.79198 -1.74929,-1.7355 -2.61958,-2.6076c-0.63354,-0.63486 -2.3469,-2.70013 -1.85116,-1.95269c0.92129,1.38904 0.67161,3.08002 0.08036,4.60613l0.26293,0.05259l-0.2744,1.37198c-0.10538,0.58671 -0.61844,1.03192 -1.23549,1.03192c-0.61705,0 -1.13011,-0.44521 -1.23549,-1.03192l-0.2669,-1.33455c-1.06622,-3.72457 -2.11841,-7.45653 -2.91467,-11.24605c-0.48459,1.19905 -0.71562,1.92949 -1.08584,2.68003l0.25242,0.10098l-0.54705,1.36763c-0.17801,0.47676 -0.63755,0.81625 -1.17638,0.81625c-0.56469,0 -1.04229,-0.37286 -1.20004,-0.88581l-0.54876,-1.64627l0.02241,-0.00747l-0.04478,-0.06729c-0.60753,-3.01231 -1.43683,-5.58054 -1.43683,-8.69087c0,0 0,-0.61213 0.42745,-0.98148c-0.99605,-1.64771 -2.62698,-4.45469 -2.10001,-6.52522c-0.0206,-3.2664 -1.39796,-6.51335 -1.38995,-9.91324l-0.2555,-1.27747c-0.01929,-0.08746 -0.02946,-0.17834 -0.02946,-0.27161c0,-0.69329 0.56202,-1.2553 1.2553,-1.2553c0.34664,0 0.66046,0.1405 0.88763,0.36767l1.11582,1.11582l-0.14114,0.14115c4.32295,2.91947 8.14312,7.18243 11.33777,11.41974c0.52965,-0.39632 1.21392,-0.12262 1.21392,-0.12262zM289.91132,140.56236c0.03663,-0.08357 0.07196,-0.16734 0.1052,-0.25124l0.24341,-0.7368c0.04783,-0.1571 0.12564,-0.30114 0.22676,-0.42545c0.02567,-0.03417 0.05385,-0.0687 0.08467,-0.10273c-0.44054,-0.47247 -0.86546,-0.99749 -1.28328,-1.56761c0.15502,1.04321 0.3838,2.05012 0.62324,3.08383zM296.0845,146.09538c0.02198,-0.02461 0.04465,-0.04753 0.06799,-0.06865c2.00429,-1.81415 4.73052,1.15437 6.56433,3.12162c-0.35469,-1.95013 -0.17082,-4.72631 0.59344,-5.22615c0.40602,-0.26555 2.23717,0.30851 3.40444,0.70404c-1.51198,-2.12783 -3.25156,-5.76345 -3.98388,-6.72216l-0.05284,-0.04702c-0.01565,-0.01238 -0.031,-0.02511 -0.04603,-0.03821c-0.47871,1.1867 -1.41085,2.20996 -2.42129,3.18944c-2.05546,0.71871 -3.75257,0.89681 -5.2128,0.64005c0.32977,1.48982 0.69732,2.971 1.08663,4.44705zM288.84288,127.6881c-0.65365,0.10048 -1.22062,0.19518 -1.46965,0.2891c-0.03094,0.12878 -0.08418,0.28168 -0.17581,0.42654c0.11937,1.18088 2.06711,4.41324 2.27147,4.75384c2.52769,4.21282 4.23312,7.3171 9.42188,5.71506c2.97068,-3.12514 -1.25042,-8.45678 -5.12147,-12.4663l-1.10455,0.66273l-0.14157,-0.23595c-0.43663,0.36474 -0.90993,0.67228 -1.43284,0.88297l-0.90612,0.30432c0,0 -0.83683,0.27894 -1.34134,-0.33231zM289.73649,122.417c-0.72228,-0.72532 -2.34199,-1.59053 -3.508,-2.57609c0.28622,1.96396 0.78736,3.87689 1.03756,5.81699c1.34635,-0.33964 3.05581,-0.70322 3.4918,-0.84683l1.03321,-0.38745c-0.80288,-0.78465 -1.51778,-1.46757 -2.05456,-2.00662z" fill="#000000" stroke-width="0.5"/><path d="M294.918,141.62332c1.46023,0.25677 3.21609,0.0227 5.27155,-0.69601c1.01043,-0.97948 1.98872,-2.00162 2.46744,-3.18833c0.01503,0.0131 0.03112,0.02608 0.04677,0.03845l0.0537,0.04732c0.73232,0.95871 2.52739,4.68967 4.03937,6.8175c-1.16726,-0.39553 -2.99817,-0.97088 -3.4042,-0.70534c-0.76426,0.49984 -1.00439,3.3408 -0.6497,5.29093c-1.83381,-1.96725 -4.65978,-4.97547 -6.66407,-3.16132c-0.02334,0.02112 -0.04579,0.04441 -0.06778,0.06902c-0.38931,-1.47605 -0.76332,-3.02242 -1.09308,-4.51224z" fill="#ff5e00" stroke-width="0.5"/><path d="M289.25592,137.40126c0.41782,0.57012 0.95851,1.17577 1.39905,1.64824c-0.03081,0.03404 -0.06107,0.08401 -0.08673,0.11818c-0.10112,0.12431 -0.21763,0.32142 -0.26545,0.47852l-0.28065,0.74843c-0.03324,0.0839 -0.07519,0.16784 -0.11182,0.25141c-0.23944,-1.03372 -0.49937,-2.20157 -0.65439,-3.24478z" fill="#000eff" stroke-width="0.5"/><path d="M303.56584,135.67203c-0.17947,-0.01829 -0.39849,0.01207 -0.60395,0.11415c-0.03494,-0.37644 -0.12288,-0.76873 -0.26014,-1.18053c-0.37089,-1.11267 -1.63029,-2.40746 -2.49656,-3.42486c2.17514,1.45311 4.83685,3.62064 4.80275,3.61135l-0.94434,0.46384c0,0 -0.28886,0.14663 -0.49776,0.41605z" fill="#000eff" stroke-width="0.5"/><path d="M290.13645,127.9517l0.91781,-0.31112c0.52292,-0.21069 1.0183,-0.52523 1.45493,-0.88997l0.14299,0.23573l1.12004,-0.66363c3.87104,4.00952 8.14481,9.48735 5.17413,12.61249c-5.18876,1.60204 -7.03321,-1.55858 -9.56091,-5.7714c-0.20436,-0.3406 -2.13717,-3.62722 -2.25654,-4.8081c0.09163,-0.14486 0.14773,-0.30161 0.17867,-0.43038c0.24903,-0.09392 0.82533,-0.19863 1.47898,-0.29911c0.50451,0.61126 1.3499,0.3255 1.3499,0.3255z" fill="#000eff" stroke-width="0.5"/><path d="M291.86276,124.46678l-1.05079,0.40812c-0.43599,0.14361 -2.2426,0.51513 -3.58895,0.85477c-0.2502,-1.94009 -0.76615,-3.98527 -1.05237,-5.94924c1.16601,0.98555 2.91967,1.87643 3.64195,2.60176c0.53678,0.53904 1.24728,1.29994 2.05016,2.08459z" fill="#ff0000" stroke-width="0.5"/><path d="M305.30946,140.38662c0.43057,0.71761 -0.28704,1.14817 -0.28704,1.14817l-0.36486,0.21781c-0.71571,0.47714 -1.69748,1.04834 -2.77578,1.54199c-0.65138,0.6589 -1.14736,0.73482 -1.62446,0.64619c-1.02227,0.34077 -2.05592,0.55016 -2.97613,0.50178c-0.23522,0.31702 -0.49136,0.58543 -1.01309,0.44337c-0.43503,-0.11845 -0.74038,-0.77098 -1.06569,-1.25407c-0.11177,-0.10724 -0.2164,-0.22631 -0.31315,-0.35792c0,0 -0.01045,-0.01567 -0.02585,-0.04387c-0.00579,-0.00474 -0.0116,-0.00937 -0.01743,-0.01389c0,0 -0.2913,-0.23304 -0.10377,-0.53408c0.02099,-0.1897 0.1192,-0.39536 0.37916,-0.56868c0.69632,-0.46421 1.16053,0.23211 1.16053,0.23211c0.65633,1.21631 0.9078,-0.1441 2.04334,-0.28286c2.59405,-0.31698 2.75589,0.06267 5.40392,-1.70269l0.43215,-0.2604c0,0 0.71761,-0.43057 1.14817,0.28704z" fill="#ff5e00" stroke-width="0.5"/><path d="M303.22621,148.66739c0.07197,0.21336 0.17348,0.73513 -0.41204,1.02789c-0.74852,0.37426 -1.12278,-0.37426 -1.12278,-0.37426c-1.13917,-2.28935 -1.79417,-3.25887 -4.37366,-3.29048l-0.77617,0.21168c-0.07564,0.02247 -0.15575,0.03453 -0.23869,0.03453c-0.46219,0 -0.83687,-0.37468 -0.83687,-0.83687c0,-0.34538 0.20922,-0.64189 0.50783,-0.7697l0.85945,-0.39066l0.05996,0.13192l0.06614,-0.01804l0.02391,0.08765c0.02892,-0.01703 0.05786,-0.03354 0.08686,-0.04952l-0.00165,-0.06022c0.03921,-0.00029 0.07814,-0.00041 0.11678,-0.00034c0.77344,-0.3873 1.60034,-0.40691 2.84308,-0.0577c0.013,0.00365 1.09866,0.3663 1.65572,0.78064c0.11317,-0.83972 0.49546,-2.13443 0.93664,-2.42748c0.67888,-0.45094 1.45054,-0.48468 2.19523,-0.3448c0.30412,-0.0235 0.57541,0.03219 0.74989,0.19473c0.18225,0.05889 0.36006,0.1237 0.53141,0.19034l0.05149,0.07901l0.02312,-0.03468l0.70652,0.47101c0.23073,0.14901 0.38346,0.40843 0.38346,0.70352c0,0.46219 -0.37468,0.83687 -0.83687,0.83687c-0.12993,0 -0.25294,-0.02961 -0.36265,-0.08245l-0.6983,-0.31741c-1.37823,0.16331 -1.81107,0.86274 -2.011,3.38473l-0.08138,0.73397c0,0 -0.00881,0.07926 -0.04545,0.18612z" fill="#fffe00" stroke-width="0.5"/><path d="M277.49452,156.93432v-45.95344h42.96945v45.95344z" fill="#3c1cff" stroke-width="0"/><path d="M276.13476,162.76419v-28.28879h15.23242v28.28879z" fill="#717171" stroke-width="0"/><path d="M298.54324,162.32404v-28.28879h15.23242v28.28879z" fill="#717171" stroke-width="0"/><path d="M300.64182,136.13384v-18.49652h10.15495v18.49652z" fill="#717171" stroke-width="0"/><path d="M278.31082,146.80641v-3.26409h2.53874v3.26409z" fill="#fffe00" stroke-width="0"/><path d="M284.47632,147.16909v-2.90141h2.90141v2.90141z" fill="#fffe00" stroke-width="0"/><path d="M300.4341,144.26767v-3.62677h3.62677v3.62677z" fill="#fffe00" stroke-width="0"/><path d="M308.41299,145.3557v-3.98944h3.26409v3.98944z" fill="#fffe00" stroke-width="0"/><path d="M301.15945,155.51065v-4.7148h3.98944v4.7148z" fill="#fffe00" stroke-width="0"/><path d="M306.96228,160.9508v-3.26409h2.90141v3.26409z" fill="#fffe00" stroke-width="0"/><path d="M280.48688,154.7853v-3.26409h4.7148v3.26409z" fill="#fffe00" stroke-width="0"/><g fill="#ff1212" stroke-width="0"><path d="M293.28951,129.40408v-11.02171h10.65433v11.02172z"/><path d="M293.73278,143.86998v-15.88344h9.53007v15.88344z"/><path d="M293.73278,151.28225v-9.74184h4.87093v9.74184z"/><path d="M298.60371,151.70581v-9.53007h4.44736v9.53007z"/><path d="M289.62044,140.82465l3.29143,-9.16897l2.3919,0.85863l-3.29143,9.16897z"/><path d="M299.03759,135.20838l7.09817,-8.96659l4.31725,3.41764l-7.09818,8.96659z"/></g><path d="M272.19219,162.62221v-54.81486h53.97799v54.81486z" fill="#f612ff" stroke-width="0"/><text transform="translate(258.63936,179.34759) scale(0.3758,0.3758)" font-size="40" xml:space="preserve" fill="#ffffff" stroke-width="1" font-family="Pixel" font-weight="normal" text-anchor="start"><tspan x="0" dy="0">The Plaza</tspan></text><g fill="#3f12ff" stroke-width="0"><path d="M280.3246,128.51058v-11.02171h10.65433v11.02172z"/><path d="M280.76787,142.97648v-15.88344h9.53006v15.88344z"/><path d="M280.76787,150.38876v-9.74184h4.87092v9.74184z"/><path d="M285.63879,150.81231v-9.53006h4.44736v9.53006z"/><path d="M276.65553,139.93116l3.29143,-9.16897l2.39191,0.85863l-3.29143,9.16897z"/><path d="M286.07268,134.31488l7.09817,-8.96659l4.31725,3.41764l-7.09817,8.96659z"/></g><g fill="#ff1212" stroke-width="0"><path d="M295.21968,127.55354v-11.02171h10.65433v11.02172z"/><path d="M295.66295,142.01944v-15.88344h9.53007v15.88344z"/><path d="M295.66295,149.43171v-9.74184h4.87093v9.74184z"/><path d="M300.53388,149.85527v-9.53007h4.44736v9.53007z"/><path d="M291.55061,138.97412l3.29143,-9.16897l2.3919,0.85863l-3.29143,9.16897z"/><path d="M300.96776,133.35784l7.09817,-8.96659l4.31725,3.41764l-7.09818,8.96659z"/></g><g fill="#4aff12" stroke-width="0"><path d="M308.70729,128.85144v-11.02171h10.65433v11.02172z"/><path d="M309.38828,143.31734v-15.88344h9.53007v15.88344z"/><path d="M314.04742,150.72961v-9.74184h4.87093v9.74184z"/><path d="M309.60006,151.15317v-9.53007h4.44736v9.53007z"/><path d="M320.63878,141.13065l-3.29143,-9.16897l2.3919,-0.85863l3.29143,9.16897z"/><path d="M309.29629,138.07338l-7.09818,-8.96659l4.31725,-3.41764l7.09817,8.96659z"/></g><g fill="#ffe612" stroke-width="0"><path d="M293.75359,130.69003v-11.02171h10.65433v11.02172z"/><path d="M294.19687,145.15593v-15.88344h9.53007v15.88344z"/><path d="M294.19687,152.5682v-9.74184h4.87093v9.74184z"/><path d="M299.06779,152.99176v-9.53007h4.44736v9.53007z"/><path d="M290.08453,142.11061l3.29143,-9.16897l2.3919,0.85863l-3.29143,9.16897z"/><path d="M299.50168,136.49433l7.09817,-8.96659l4.31725,3.41764l-7.09818,8.96659z"/></g></g></g></svg>